<svg width="117" height="50" viewBox="0 0 117 50" fill="none" xmlns="http://www.w3.org/2000/svg">
<path d="M69.858 0.369998V3.532H63.568V24H59.692V3.532H53.368V0.369998H69.858Z" fill="white"/>
<path d="M81.9094 24.306C80.1414 24.306 78.5434 23.9093 77.1154 23.116C75.6874 22.3 74.5654 21.1667 73.7494 19.716C72.9334 18.2427 72.5254 16.5427 72.5254 14.616C72.5254 12.712 72.9447 11.0233 73.7834 9.55C74.6221 8.07667 75.7667 6.94333 77.2174 6.15C78.6681 5.35667 80.2887 4.96 82.0794 4.96C83.8701 4.96 85.4907 5.35667 86.9414 6.15C88.3921 6.94333 89.5367 8.07667 90.3754 9.55C91.2141 11.0233 91.6334 12.712 91.6334 14.616C91.6334 16.52 91.2027 18.2087 90.3414 19.682C89.4801 21.1553 88.3014 22.3 86.8054 23.116C85.3321 23.9093 83.7001 24.306 81.9094 24.306ZM81.9094 20.94C82.9067 20.94 83.8361 20.702 84.6974 20.226C85.5814 19.75 86.2954 19.036 86.8394 18.084C87.3834 17.132 87.6554 15.976 87.6554 14.616C87.6554 13.256 87.3947 12.1113 86.8734 11.182C86.3521 10.23 85.6607 9.516 84.7994 9.04C83.9381 8.564 83.0087 8.326 82.0114 8.326C81.0141 8.326 80.0847 8.564 79.2234 9.04C78.3847 9.516 77.7161 10.23 77.2174 11.182C76.7187 12.1113 76.4694 13.256 76.4694 14.616C76.4694 16.6333 76.9794 18.1973 77.9994 19.308C79.0421 20.396 80.3454 20.94 81.9094 20.94Z" fill="white"/>
<path d="M99.341 8.02C99.9984 7.15867 100.894 6.43333 102.027 5.844C103.16 5.25467 104.441 4.96 105.869 4.96C107.501 4.96 108.986 5.368 110.323 6.184C111.683 6.97733 112.748 8.09933 113.519 9.55C114.29 11.0007 114.675 12.6667 114.675 14.548C114.675 16.4293 114.29 18.118 113.519 19.614C112.748 21.0873 111.683 22.2433 110.323 23.082C108.986 23.898 107.501 24.306 105.869 24.306C104.441 24.306 103.172 24.0227 102.061 23.456C100.95 22.8667 100.044 22.1413 99.341 21.28V32.908H95.465V5.266H99.341V8.02ZM110.731 14.548C110.731 13.256 110.459 12.1453 109.915 11.216C109.394 10.264 108.691 9.55 107.807 9.074C106.946 8.57533 106.016 8.326 105.019 8.326C104.044 8.326 103.115 8.57533 102.231 9.074C101.37 9.57267 100.667 10.298 100.123 11.25C99.6017 12.202 99.341 13.324 99.341 14.616C99.341 15.908 99.6017 17.0413 100.123 18.016C100.667 18.968 101.37 19.6933 102.231 20.192C103.115 20.6907 104.044 20.94 105.019 20.94C106.016 20.94 106.946 20.6907 107.807 20.192C108.691 19.6707 109.394 18.9227 109.915 17.948C110.459 16.9733 110.731 15.84 110.731 14.548Z" fill="white"/>
<path d="M57.3225 45.872H65.3125V49H53.4465V25.37H57.3225V45.872Z" fill="white"/>
<path d="M67.2619 39.548C67.2619 37.6667 67.6472 36.0007 68.4179 34.55C69.2112 33.0993 70.2766 31.9773 71.6139 31.184C72.9739 30.368 74.4699 29.96 76.1019 29.96C77.5752 29.96 78.8559 30.2547 79.9439 30.844C81.0546 31.4107 81.9386 32.1247 82.5959 32.986V30.266H86.5059V49H82.5959V46.212C81.9386 47.096 81.0432 47.8327 79.9099 48.422C78.7766 49.0113 77.4846 49.306 76.0339 49.306C74.4246 49.306 72.9512 48.898 71.6139 48.082C70.2766 47.2433 69.2112 46.0873 68.4179 44.614C67.6472 43.118 67.2619 41.4293 67.2619 39.548ZM82.5959 39.616C82.5959 38.324 82.3239 37.202 81.7799 36.25C81.2586 35.298 80.5672 34.5727 79.7059 34.074C78.8446 33.5753 77.9152 33.326 76.9179 33.326C75.9206 33.326 74.9912 33.5753 74.1299 34.074C73.2686 34.55 72.5659 35.264 72.0219 36.216C71.5006 37.1453 71.2399 38.256 71.2399 39.548C71.2399 40.84 71.5006 41.9733 72.0219 42.948C72.5659 43.9227 73.2686 44.6707 74.1299 45.192C75.0139 45.6907 75.9432 45.94 76.9179 45.94C77.9152 45.94 78.8446 45.6907 79.7059 45.192C80.5672 44.6933 81.2586 43.968 81.7799 43.016C82.3239 42.0413 82.5959 40.908 82.5959 39.616Z" fill="white"/>
<path d="M116.757 30.266L110.943 49H106.863L103.089 35.162L99.3149 49H95.2349L89.3869 30.266H93.3309L97.2409 45.328L101.219 30.266H105.265L109.073 45.26L112.949 30.266H116.757Z" fill="white"/>
<path d="M13.75 0.95C13.75 0.425329 13.3247 0 12.8 0H4.5C2.01472 0 0 2.01472 0 4.5V12.75C0 13.3023 0.447715 13.75 1 13.75H1.5C2.05228 13.75 2.5 13.3023 2.5 12.75V5C2.5 3.61929 3.61929 2.5 5 2.5H12.8C13.3247 2.5 13.75 2.07467 13.75 1.55V0.95Z" fill="white"/>
<path d="M1 36.25C0.447715 36.25 0 36.6977 0 37.25V45.5C0 47.9853 2.01472 50 4.5 50H13.1C13.6523 50 14.1 49.5523 14.1 49V48.5C14.1 47.9477 13.6523 47.5 13.1 47.5H5C3.61929 47.5 2.5 46.3807 2.5 45V37.25C2.5 36.6977 2.05228 36.25 1.5 36.25H1Z" fill="white"/>
<path d="M37.6 50C37.0477 50 36.6 49.5523 36.6 49V48.5C36.6 47.9477 37.0477 47.5 37.6 47.5H45C46.3807 47.5 47.5 46.3807 47.5 45V37.25C47.5 36.6977 47.9477 36.25 48.5 36.25H49C49.5523 36.25 50 36.6977 50 37.25V45.5C50 47.9853 47.9853 50 45.5 50H37.6Z" fill="white"/>
<path d="M50 12.75C50 13.3023 49.5523 13.75 49 13.75H48.5C47.9477 13.75 47.5 13.3023 47.5 12.75V5C47.5 3.61929 46.3807 2.5 45 2.5H37.2C36.6753 2.5 36.25 2.07467 36.25 1.55V0.95C36.25 0.425329 36.6753 0 37.2 0H45.5C47.9853 0 50 2.01472 50 4.5V12.75Z" fill="white"/>
<path d="M30.3 8.1C30.3 10.7786 28.0614 12.95 25.3 12.95C22.5386 12.95 20.3 10.7786 20.3 8.1C20.3 5.42142 22.5386 3.25 25.3 3.25C28.0614 3.25 30.3 5.42142 30.3 8.1Z" fill="white"/>
<path d="M16.1643 13.8H33.6357L35.1 15.2H14.7L16.1643 13.8Z" fill="white"/>
<path fill-rule="evenodd" clip-rule="evenodd" d="M33.1 29.25C33.1 26.6819 37.9 17.95 37.9 17.95C37.9 17.95 42.7 26.6819 42.7 29.25C42.7 31.8181 40.551 33.9 37.9 33.9C35.249 33.9 33.1 31.8181 33.1 29.25ZM37.8893 20L41.0287 27.9125H34.75L37.8893 20Z" fill="white"/>
<path fill-rule="evenodd" clip-rule="evenodd" d="M7.2 29.25C7.2 26.6819 12 17.95 12 17.95C12 17.95 16.8 26.6819 16.8 29.25C16.8 31.8181 14.651 33.9 12 33.9C9.34903 33.9 7.2 31.8181 7.2 29.25ZM11.9893 20L15.1287 27.9125H8.85L11.9893 20Z" fill="white"/>
<path d="M13.75 16.55L12 17.95H22.95V45.15H13.85L12 46.9H37.9L36.05 45.15H26.95V17.95H37.9L36.15 16.55H13.75Z" fill="white"/>
</svg>
